<svg width="96" height="96" viewBox="0 0 96 96" fill="none" xmlns="http://www.w3.org/2000/svg">
<g filter="url(#filter0_dd)">
<circle cx="48" cy="46" r="28" fill="url(#paint0_linear)"/>
</g>
<g clip-path="url(#clip0)">
<path d="M48 33.4861C48.3978 33.4861 48.7794 33.6441 49.0607 33.9254C49.342 34.2067 49.5 34.5883 49.5 34.9861V43.9861H58.5C58.8978 43.9861 59.2794 44.1441 59.5607 44.4254C59.842 44.7067 60 45.0883 60 45.4861C60 45.8839 59.842 46.2654 59.5607 46.5467C59.2794 46.828 58.8978 46.9861 58.5 46.9861H49.5V55.9861C49.5 56.3839 49.342 56.7654 49.0607 57.0467C48.7794 57.328 48.3978 57.4861 48 57.4861C47.6022 57.4861 47.2206 57.328 46.9393 57.0467C46.658 56.7654 46.5 56.3839 46.5 55.9861V46.9861H37.5C37.1022 46.9861 36.7206 46.828 36.4393 46.5467C36.158 46.2654 36 45.8839 36 45.4861C36 45.0883 36.158 44.7067 36.4393 44.4254C36.7206 44.1441 37.1022 43.9861 37.5 43.9861H46.5V34.9861C46.5 34.5883 46.658 34.2067 46.9393 33.9254C47.2206 33.6441 47.6022 33.4861 48 33.4861V33.4861Z" fill="#333333"/>
</g>
<defs>
<filter id="filter0_dd" x="0" y="0" width="96" height="96" filterUnits="userSpaceOnUse" color-interpolation-filters="sRGB">
<feFlood flood-opacity="0" result="BackgroundImageFix"/>
<feColorMatrix in="SourceAlpha" type="matrix" values="0 0 0 0 0 0 0 0 0 0 0 0 0 0 0 0 0 0 127 0"/>
<feOffset dy="2"/>
<feGaussianBlur stdDeviation="2"/>
<feColorMatrix type="matrix" values="0 0 0 0 0.0470588 0 0 0 0 0.619608 0 0 0 0 0.0901961 0 0 0 0.25 0"/>
<feBlend mode="normal" in2="BackgroundImageFix" result="effect1_dropShadow"/>
<feColorMatrix in="SourceAlpha" type="matrix" values="0 0 0 0 0 0 0 0 0 0 0 0 0 0 0 0 0 0 127 0"/>
<feOffset dy="2"/>
<feGaussianBlur stdDeviation="10"/>
<feColorMatrix type="matrix" values="0 0 0 0 0.0470588 0 0 0 0 0.619608 0 0 0 0 0.0901961 0 0 0 0.1 0"/>
<feBlend mode="normal" in2="effect1_dropShadow" result="effect2_dropShadow"/>
<feBlend mode="normal" in="SourceGraphic" in2="effect2_dropShadow" result="shape"/>
</filter>
<linearGradient id="paint0_linear" x1="20" y1="46" x2="76" y2="46" gradientUnits="userSpaceOnUse">
<stop stop-color="#16FF00"/>
<stop offset="1" stop-color="#4CFFC9"/>
</linearGradient>
<clipPath id="clip0">
<rect width="24" height="24" fill="white" transform="translate(36 33.4861)"/>
</clipPath>
</defs>
</svg>
