<svg width="281" height="58" fill="none" xmlns="http://www.w3.org/2000/svg"><g clip-path="url(#clip0)"><path d="M111.071 15.883V0h3.283l4.754 10.209h1.016L124.884 0h3.283v15.883h-2.039V2.27l.024-.228h-.048l-4.616 9.981h-3.737l-4.617-9.981h-.048l.024.228v13.611h-2.039zM132.789 14.427c-1.118-1.12-1.674-2.529-1.674-4.218 0-1.696.556-3.098 1.674-4.218 1.119-1.12 2.524-1.677 4.21-1.677s3.091.557 4.21 1.677c1.118 1.12 1.674 2.528 1.674 4.218 0 1.695-.556 3.103-1.674 4.218-1.119 1.12-2.524 1.677-4.21 1.677s-3.097-.557-4.21-1.677zm1.286-7.238c-.771.785-1.154 1.792-1.154 3.02s.383 2.229 1.154 3.02c.771.784 1.746 1.18 2.918 1.18 1.172 0 2.153-.396 2.918-1.18.771-.785 1.154-1.792 1.154-3.02 0-1.222-.383-2.229-1.154-3.02-.771-.785-1.746-1.18-2.918-1.18-1.172 0-2.147.395-2.918 1.18zM146.327 14.427c-1.088-1.12-1.632-2.529-1.632-4.218 0-1.696.544-3.098 1.632-4.218 1.088-1.12 2.428-1.677 4.03-1.677 1.86 0 3.331.665 4.413 1.995a5.662 5.662 0 011.017 1.97h-1.812a3.588 3.588 0 00-.747-1.132c-.724-.754-1.687-1.132-2.877-1.132-1.1 0-2.021.395-2.75 1.18-.73.785-1.1 1.792-1.1 3.02s.376 2.229 1.13 3.02c.753.784 1.662 1.18 2.714 1.18 1.238 0 2.225-.414 2.966-1.246.335-.348.586-.761.772-1.247h1.812a5.679 5.679 0 01-1.041 2.11c-1.148 1.39-2.649 2.084-4.509 2.084-1.59-.012-2.93-.57-4.018-1.69zM158.167 15.883V4.534h1.812v4.536h2.266l3.623-4.536h2.153l-4.192 5.332 4.527 6.01h-2.266l-3.851-5.105h-2.266v5.104h-1.806v.007zM170.598 14.427c-1.118-1.12-1.674-2.529-1.674-4.218 0-1.696.556-3.098 1.674-4.218 1.119-1.12 2.524-1.677 4.21-1.677 1.692 0 3.091.557 4.21 1.677 1.118 1.12 1.674 2.528 1.674 4.218 0 1.695-.556 3.103-1.674 4.218-1.119 1.12-2.524 1.677-4.21 1.677s-3.091-.557-4.21-1.677zm1.292-7.238c-.771.785-1.154 1.792-1.154 3.02s.383 2.229 1.154 3.02c.771.784 1.746 1.18 2.918 1.18 1.172 0 2.153-.396 2.918-1.18.771-.785 1.154-1.792 1.154-3.02 0-1.222-.383-2.229-1.154-3.02-.771-.785-1.746-1.18-2.918-1.18-1.172 0-2.147.395-2.918 1.18zM183.186 15.883V4.534h5.549c1.058 0 1.883.264 2.493.797.604.527.909 1.21.909 2.043 0 .378-.054.725-.161 1.03-.108.312-.234.552-.383.725-.15.174-.311.318-.484.432a1.91 1.91 0 01-.431.227c-.114.036-.191.06-.239.06v.024c.048 0 .137.018.269.06.137.036.311.12.532.252.221.132.425.281.622.467.197.18.365.45.508.797.144.348.215.73.215 1.156 0 .983-.334 1.78-1.01 2.385-.67.605-1.609.904-2.816.904h-5.573v-.011zm1.811-6.693h3.624c1.13 0 1.698-.49 1.698-1.473 0-.983-.568-1.474-1.698-1.474h-3.624V9.19zm0 4.991h3.738c.663 0 1.172-.15 1.518-.455.347-.3.521-.72.521-1.247 0-.527-.174-.946-.521-1.246-.346-.3-.855-.455-1.518-.455h-3.738v3.403zM196.024 14.427c-1.088-1.12-1.633-2.529-1.633-4.218 0-1.696.545-3.098 1.633-4.218s2.428-1.677 4.03-1.677c1.86 0 3.331.665 4.413 1.995a5.696 5.696 0 011.017 1.97h-1.812a3.592 3.592 0 00-.748-1.132c-.723-.754-1.686-1.132-2.876-1.132-1.1 0-2.021.395-2.751 1.18-.729.785-1.1 1.792-1.1 3.02s.377 2.229 1.13 3.02c.754.784 1.663 1.18 2.715 1.18 1.238 0 2.225-.414 2.966-1.246.335-.348.586-.761.771-1.247h1.812a5.662 5.662 0 01-1.04 2.11c-1.148 1.39-2.649 2.084-4.509 2.084-1.584-.012-2.93-.57-4.018-1.69zM207.869 15.883V4.534h1.812v4.536h2.266l3.624-4.536h2.153l-4.192 5.332 4.527 6.01h-2.267l-3.85-5.105h-2.267v5.104h-1.806v.007zM219.751 15.883V4.534h1.812v8.508l-.024.227h.048l6.093-8.735h2.039v11.341h-1.812V7.37l.024-.228h-.048l-6.093 8.735h-2.039v.007zM232.888 15.883V4.534h1.812v8.508l-.024.227h.048l6.093-8.735h2.039v11.341h-1.812V7.37l.024-.228h-.048l-6.093 8.735h-2.039v.007zM234.515 0h1.698c0 .407.143.737.43.989.287.251.712.371 1.268.371s.981-.126 1.268-.371c.287-.252.43-.582.43-.989h1.698c0 .833-.299 1.51-.903 2.043-.603.527-1.435.797-2.493.797-1.058 0-1.89-.264-2.494-.797-.598-.533-.902-1.21-.902-2.043zM111.071 34.784v-11.34h1.812v8.507l-.024.227h.048L119 23.443h2.039v11.341h-1.811v-8.507l.023-.228h-.047l-6.094 8.735h-2.039zM124.203 34.784v-11.34h1.811v4.648h6.339v-4.649h1.812v11.341h-1.812v-4.99h-6.339v4.99h-1.811zM137.34 34.784v-11.34h1.812v4.648h6.338v-4.649h1.812v11.341h-1.812v-4.99h-6.338v4.99h-1.812zM151.464 33.335c-1.119-1.12-1.675-2.529-1.675-4.218 0-1.696.556-3.098 1.675-4.218 1.118-1.12 2.523-1.677 4.209-1.677 1.692 0 3.092.557 4.21 1.677 1.118 1.12 1.674 2.528 1.674 4.218 0 1.695-.556 3.103-1.674 4.218-1.118 1.12-2.524 1.677-4.21 1.677s-3.091-.557-4.209-1.677zm1.291-7.238c-.771.785-1.154 1.792-1.154 3.02 0 1.222.383 2.229 1.154 3.02.772.784 1.746 1.18 2.918 1.18 1.172 0 2.153-.396 2.918-1.18.772-.785 1.154-1.792 1.154-3.02 0-1.222-.382-2.229-1.154-3.02-.771-.785-1.746-1.18-2.918-1.18-1.172 0-2.146.395-2.918 1.18zM164.057 34.784v-11.34h5.549c1.058 0 1.883.263 2.493.796.604.527.909 1.21.909 2.043 0 .377-.054.725-.161 1.03-.108.312-.233.552-.383.725a2.316 2.316 0 01-.484.432 1.909 1.909 0 01-.431.227c-.113.036-.191.06-.239.06v.024c.048 0 .138.018.269.06.138.036.311.12.532.252.222.126.425.281.622.467.198.18.365.45.508.797.144.348.216.737.216 1.156 0 .983-.335 1.78-1.011 2.385-.67.605-1.608.91-2.816.91h-5.573v-.024zm1.812-6.692h3.623c1.13 0 1.698-.49 1.698-1.473 0-.983-.568-1.474-1.698-1.474h-3.623v2.947zm0 4.99h3.737c.664 0 1.172-.149 1.519-.454.346-.3.52-.72.52-1.247 0-.527-.174-.946-.52-1.246-.347-.3-.855-.455-1.519-.455h-3.737v3.403zM176.847 33.323c-1.058-1.127-1.585-2.529-1.585-4.206 0-1.678.527-3.08 1.585-4.206 1.058-1.126 2.338-1.69 3.851-1.69.951 0 1.752.18 2.41.546.657.365 1.136.755 1.435 1.18l.203.341h.024V23.45h1.812V34.79h-1.812v-1.815h-.024l-.203.318c-.275.407-.742.796-1.405 1.168-.664.371-1.477.557-2.446.557-1.507-.006-2.787-.57-3.845-1.695zm1.322-7.226c-.73.785-1.101 1.792-1.101 3.02 0 1.222.365 2.229 1.101 3.02.729.784 1.65 1.18 2.75 1.18s2.021-.396 2.751-1.18c.729-.785 1.1-1.792 1.1-3.02 0-1.222-.365-2.229-1.1-3.02-.73-.785-1.651-1.18-2.751-1.18-1.1 0-2.015.395-2.75 1.18zM189.751 34.784v-11.34h1.812v9.639h5.884v-9.64h1.812v9.64h1.584v4.308h-1.812v-2.607h-9.28zM202.769 34.784v-11.34h1.812v8.507l-.024.227h.047l6.094-8.735h2.039v11.341h-1.812v-8.507l.024-.228h-.048l-6.093 8.735h-2.039zM216.899 33.335c-1.119-1.12-1.675-2.529-1.675-4.218 0-1.696.556-3.098 1.675-4.218 1.118-1.12 2.523-1.677 4.209-1.677 1.692 0 3.092.557 4.21 1.677 1.118 1.12 1.674 2.528 1.674 4.218 0 1.695-.556 3.103-1.674 4.218-1.118 1.12-2.524 1.677-4.21 1.677s-3.091-.557-4.209-1.677zm1.291-7.238c-.771.785-1.154 1.792-1.154 3.02 0 1.222.383 2.229 1.154 3.02.772.784 1.746 1.18 2.918 1.18 1.172 0 2.153-.396 2.918-1.18.772-.785 1.154-1.792 1.154-3.02 0-1.222-.382-2.229-1.154-3.02-.771-.785-1.746-1.18-2.918-1.18-1.172 0-2.146.395-2.918 1.18zM229.486 34.784v-11.34h1.811v4.648h6.339v-4.649h1.812v11.341h-1.812v-4.99h-6.339v4.99h-1.811zM242.623 34.784v-11.34h1.812v4.648h6.338v-4.649h1.812v11.341h-1.812v-4.99h-6.338v4.99h-1.812zM255.754 34.784v-11.34h1.812v3.858h2.715c1.267 0 2.302.359 3.103 1.078.801.719 1.202 1.605 1.202 2.666 0 1.06-.401 1.947-1.202 2.666-.801.719-1.836 1.078-3.103 1.078h-4.527v-.006zm1.812-1.701h2.715c.783 0 1.393-.186 1.835-.57.437-.377.658-.868.658-1.473 0-.605-.221-1.096-.658-1.474-.436-.377-1.046-.569-1.835-.569h-2.715v4.086zm8.491 1.701v-11.34h1.812v11.34h-1.812zM271.038 34.784v-11.34h1.812v8.507l-.024.227h.048l6.093-8.735h2.039v11.341h-1.812v-8.507l.024-.228h-.048l-6.093 8.735h-2.039zm1.626-15.882h1.699c0 .407.143.737.43.988.287.252.712.372 1.268.372s.98-.126 1.268-.372c.287-.251.43-.58.43-.988h1.698c0 .833-.299 1.51-.903 2.043-.604.527-1.435.797-2.493.797-1.059 0-1.89-.264-2.494-.797-.598-.527-.903-1.21-.903-2.043zM111.071 53.692V42.345h1.812v4.535h2.266l3.624-4.535h2.153l-4.186 5.332 4.527 6.01H119l-3.851-5.105h-2.266v5.104h-1.812v.006zM121.601 53.692l3.17-11.34h4.753l3.17 11.34h-1.926l-2.601-9.64h-2.039l-2.601 9.64h-1.926zM135.414 52.225c-1.058-1.127-1.584-2.529-1.584-4.206 0-1.678.526-3.08 1.584-4.206 1.059-1.126 2.338-1.69 3.851-1.69.951 0 1.758.18 2.41.546.658.365 1.136.755 1.435 1.18l.203.342h.024v-1.84h1.812v11.341h-1.812v-1.815h-.024l-.203.318c-.275.407-.741.796-1.405 1.168-.664.371-1.477.557-2.446.557-1.507-.006-2.792-.57-3.845-1.695zm1.322-7.226c-.736.785-1.1 1.792-1.1 3.02s.364 2.229 1.1 3.02c.729.784 1.65 1.18 2.75 1.18 1.101 0 2.022-.396 2.751-1.18.73-.785 1.1-1.792 1.1-3.02s-.364-2.229-1.1-3.02c-.735-.785-1.65-1.18-2.751-1.18-1.1 0-2.015.395-2.75 1.18zM149.269 52.236c-1.088-1.12-1.632-2.528-1.632-4.217 0-1.696.544-3.098 1.632-4.218 1.088-1.12 2.428-1.678 4.03-1.678 1.86 0 3.331.666 4.413 1.996a5.66 5.66 0 011.017 1.97h-1.812a3.589 3.589 0 00-.747-1.132c-.724-.755-1.687-1.132-2.877-1.132-1.1 0-2.021.395-2.75 1.18-.73.785-1.1 1.792-1.1 3.02s.376 2.229 1.13 3.02c.753.784 1.662 1.18 2.714 1.18 1.238 0 2.225-.414 2.966-1.247.335-.347.586-.76.772-1.246h1.811a5.661 5.661 0 01-1.04 2.11c-1.148 1.39-2.649 2.084-4.509 2.084-1.59-.012-2.93-.57-4.018-1.69zM159.638 44.047v-1.702h9.735v1.702h-3.965v9.64h-1.812v-9.64h-3.958zM172.046 52.236c-1.101-1.12-1.651-2.528-1.651-4.217 0-1.696.55-3.098 1.651-4.218 1.1-1.12 2.475-1.678 4.119-1.678 1.645 0 3.02.552 4.12 1.654 1.101 1.102 1.651 2.48 1.651 4.128v.683h-9.735c.12 1.06.55 1.93 1.292 2.606.741.683 1.632 1.019 2.672 1.019 1.119 0 2.075-.342 2.877-1.019.364-.3.651-.641.861-1.018h1.812a5.829 5.829 0 01-1.155 1.88c-1.177 1.241-2.643 1.864-4.395 1.864-1.644-.006-3.019-.563-4.119-1.684zm.203-5.236h7.767a3.673 3.673 0 00-1.243-2.258c-.694-.611-1.561-.917-2.602-.917-1.04 0-1.919.306-2.625.917-.705.61-1.142 1.366-1.297 2.258zM184.429 58V42.345h1.812v1.816h.024l.227-.342c.257-.395.718-.773 1.381-1.144.664-.372 1.477-.557 2.446-.557 1.507 0 2.793.563 3.851 1.689 1.058 1.126 1.585 2.528 1.585 4.206 0 1.677-.527 3.08-1.585 4.206-1.058 1.126-2.338 1.69-3.851 1.69-.969 0-1.788-.187-2.457-.558-.67-.372-1.131-.761-1.37-1.168l-.227-.318h-.024v6.123h-1.812V58zm2.912-13c-.729.784-1.1 1.79-1.1 3.019 0 1.228.365 2.229 1.1 3.02.73.784 1.651 1.18 2.751 1.18 1.1 0 2.021-.396 2.751-1.18.729-.785 1.1-1.792 1.1-3.02s-.365-2.229-1.1-3.02c-.73-.785-1.651-1.18-2.751-1.18-1.1 0-2.021.395-2.751 1.18zM87.894.018H66.888V53.71h21.006V.018zM54.45.018H33.444v48.864H54.45V.018z" fill="#333"/><path d="M0 54.573V33.526c18.441 0 33.444-15.031 33.444-33.508H54.45c0 30.081-24.426 54.555-54.45 54.555z" fill="url(#paint0_linear)"/><path d="M33.444 54.573V33.526c18.441 0 33.444-15.031 33.444-33.508H87.9c0 30.081-24.432 54.555-54.456 54.555z" fill="url(#paint1_linear)"/></g><defs><linearGradient id="paint0_linear" x1="6.564" y1="49.018" x2="53.339" y2="1.375" gradientUnits="userSpaceOnUse"><stop stop-color="#00EF12"/><stop offset=".999" stop-color="#00FFE9"/></linearGradient><linearGradient id="paint1_linear" x1="23.626" y1="65.769" x2="70.401" y2="18.126" gradientUnits="userSpaceOnUse"><stop stop-color="#00EF12"/><stop offset=".999" stop-color="#00FFE9"/></linearGradient><clipPath id="clip0"><path fill="#fff" d="M0 0h281v58H0z"/></clipPath></defs></svg>