<svg width="40" height="40" viewBox="0 0 40 40" fill="none" xmlns="http://www.w3.org/2000/svg">
<g opacity="0.3">
<path d="M17.076 4C14.8092 3.99982 12.5817 4.59239 10.6146 5.71892C8.64744 6.84545 7.00908 8.46678 5.86206 10.422C4.71503 12.3773 4.09921 14.5984 4.0757 16.8652C4.05219 19.1319 4.62181 21.3654 5.72804 23.344L4.13604 27.508C4.00369 27.8541 3.97012 28.2302 4.03907 28.5944C4.10802 28.9585 4.27677 29.2963 4.5265 29.57C4.77623 29.8438 5.09712 30.0429 5.45337 30.1449C5.80962 30.247 6.18722 30.248 6.54404 30.148L11.518 28.754C13.2799 29.5865 15.2065 30.0122 17.1551 29.9997C19.1037 29.9872 21.0246 29.5368 22.7757 28.6818C24.5268 27.8268 26.0632 26.5891 27.2714 25.0601C28.4796 23.5312 29.3287 21.7503 29.7557 19.849C30.1828 17.9476 30.1769 15.9747 29.7386 14.0759C29.3003 12.1772 28.4407 10.4013 27.2235 8.87954C26.0062 7.35782 24.4625 6.12921 22.7064 5.28459C20.9502 4.43997 19.0267 4.00095 17.078 4H17.076ZM6.07604 17C6.07693 14.6029 6.86085 12.2716 8.30852 10.361C9.7562 8.45036 11.7884 7.06492 14.0959 6.41548C16.4034 5.76603 18.8598 5.88813 21.0915 6.7632C23.3233 7.63827 25.208 9.2184 26.4591 11.2632C27.7102 13.308 28.259 15.7054 28.0222 18.0909C27.7854 20.4763 26.7758 22.719 25.1471 24.4779C23.5184 26.2368 21.3597 27.4154 18.9995 27.8346C16.6393 28.2538 14.2068 27.8905 12.072 26.8L11.724 26.62L6.00404 28.222L7.94204 23.15L7.68604 22.73C6.63033 21.0054 6.07305 19.0221 6.07604 17V17ZM23.002 36C21.1307 36.0021 19.2811 35.5992 17.5801 34.819C15.8792 34.0387 14.3672 32.8997 13.148 31.48C14.274 31.786 15.454 31.962 16.668 31.994C18.5201 33.3021 20.7326 34.0031 23 34C24.804 34 26.504 33.566 28.004 32.8L28.352 32.62L34.072 34.222L32.134 29.15L32.39 28.73C33.41 27.062 34 25.102 34 23C34.0031 20.7791 33.3307 18.6098 32.072 16.78C32.0556 15.5902 31.8978 14.4066 31.602 13.254C32.9858 14.4725 34.0939 15.972 34.8523 17.6526C35.6106 19.3332 36.0019 21.1562 36 23C36 25.302 35.4 27.466 34.35 29.344L35.94 33.508C36.0724 33.8541 36.1059 34.2302 36.037 34.5944C35.9681 34.9585 35.7993 35.2963 35.5496 35.57C35.2998 35.8438 34.979 36.0429 34.6227 36.1449C34.2665 36.247 33.8889 36.248 33.532 36.148L28.558 34.754C26.872 35.554 24.986 36 22.998 36H23.002Z" fill="#333333"/>
</g>
</svg>
