<svg width="40" height="40" viewBox="0 0 40 40" fill="none" xmlns="http://www.w3.org/2000/svg">
<g opacity="0.8">
<path d="M9.58333 8.64663V28.125C9.58333 29.6168 10.176 31.0475 11.2309 32.1024C12.2857 33.1573 13.7165 33.75 15.2083 33.75H28.02C27.7393 34.371 27.2854 34.8978 26.7128 35.2673C26.1402 35.6368 25.4732 35.8334 24.7917 35.8333H15.2083C13.164 35.8333 11.2033 35.0212 9.75772 33.5756C8.31213 32.13 7.5 30.1693 7.5 28.125V11.875C7.49984 11.1934 7.69631 10.5264 8.06584 9.95373C8.43538 9.3811 8.96228 8.92725 9.58333 8.64663ZM21.4642 4.16663C21.9294 4.16656 22.3901 4.25815 22.8199 4.43617C23.2497 4.61419 23.6402 4.87514 23.9692 5.20413L31.4625 12.6975C31.7915 13.0264 32.0524 13.4169 32.2305 13.8467C32.4085 14.2766 32.5001 14.7372 32.5 15.2025V28.125C32.5 29.0643 32.1269 29.9651 31.4627 30.6293C30.7985 31.2935 29.8976 31.6666 28.9583 31.6666H15.2083C14.269 31.6666 13.3682 31.2935 12.704 30.6293C12.0398 29.9651 11.6667 29.0643 11.6667 28.125V7.70829C11.6667 6.76898 12.0398 5.86815 12.704 5.20396C13.3682 4.53976 14.269 4.16663 15.2083 4.16663H21.4642V4.16663ZM20.8333 6.24996H15.2083C14.8216 6.24996 14.4506 6.4036 14.1771 6.67709C13.9036 6.95059 13.75 7.32152 13.75 7.70829V28.125C13.75 28.9308 14.4033 29.5833 15.2083 29.5833H28.9583C29.3451 29.5833 29.716 29.4296 29.9895 29.1562C30.263 28.8827 30.4167 28.5117 30.4167 28.125V15.8333H24.375C23.4654 15.8333 22.5907 15.4833 21.9321 14.8559C21.2735 14.2285 20.8816 13.3718 20.8375 12.4633L20.8333 12.2916V6.24996ZM29.5683 13.75L22.9167 7.09829V12.2916C22.9167 12.6577 23.0544 13.0105 23.3025 13.2797C23.5506 13.549 23.8909 13.715 24.2558 13.745L24.375 13.75H29.5683Z" fill="#333333"/>
</g>
</svg>
