<svg width="40" height="40" viewBox="0 0 40 40" fill="none" xmlns="http://www.w3.org/2000/svg">
<g opacity="0.3">
<path d="M16.875 23.325C16.2875 24.0353 15.929 24.907 15.8467 25.825H7.08004C6.91611 25.8253 6.75382 25.8578 6.60245 25.9207C6.45108 25.9836 6.31359 26.0758 6.19782 26.1918C6.08206 26.3079 5.99029 26.4457 5.92776 26.5972C5.86523 26.7487 5.83316 26.9111 5.83337 27.075V28.0367C5.83337 28.93 6.15171 29.7934 6.73171 30.4717C8.69337 32.77 11.705 34.005 15.8467 34.1467C15.9284 35.0967 16.3017 35.9634 16.875 36.66H16.66C11.4184 36.66 7.44171 35.1517 4.83004 32.095C3.86402 30.9635 3.33332 29.5245 3.33337 28.0367V27.0734C3.33337 25.09 4.87504 23.4667 6.82504 23.335L7.08171 23.325H16.875ZM24.5767 19.1584H29.5767C30.6567 19.1584 31.5434 19.9784 31.65 21.03L31.6617 21.2417L31.66 23.325H33.7434C35.355 23.325 36.66 24.6317 36.66 26.2417V33.7417C36.66 34.5153 36.3528 35.2571 35.8058 35.8041C35.2588 36.3511 34.5169 36.6584 33.7434 36.6584H20.41C19.6365 36.6584 18.8946 36.3511 18.3476 35.8041C17.8007 35.2571 17.4934 34.5153 17.4934 33.7417V26.2417C17.4934 24.6317 18.8 23.325 20.41 23.325H22.4934V21.2417C22.4934 20.1634 23.3134 19.275 24.365 19.17L24.5767 19.1584H29.5767H24.5767V19.1584ZM33.7434 25.825H20.41C20.2995 25.825 20.1936 25.8689 20.1154 25.9471C20.0373 26.0252 19.9934 26.1312 19.9934 26.2417V33.7417C19.9934 33.9717 20.18 34.1584 20.41 34.1584H33.7434C33.8539 34.1584 33.9599 34.1145 34.038 34.0363C34.1161 33.9582 34.16 33.8522 34.16 33.7417V26.2417C34.16 26.1312 34.1161 26.0252 34.038 25.9471C33.9599 25.8689 33.8539 25.825 33.7434 25.825V25.825ZM29.16 21.6584H24.9934V23.325H29.16V21.6584ZM16.6617 3.33337C18.8718 3.33337 20.9915 4.21135 22.5543 5.77415C24.1171 7.33695 24.995 9.45657 24.995 11.6667C24.995 13.8768 24.1171 15.9965 22.5543 17.5593C20.9915 19.1221 18.8718 20 16.6617 20C14.4516 20 12.332 19.1221 10.7692 17.5593C9.20635 15.9965 8.32837 13.8768 8.32837 11.6667C8.32837 9.45657 9.20635 7.33695 10.7692 5.77415C12.332 4.21135 14.4516 3.33337 16.6617 3.33337V3.33337ZM16.6617 5.83337C15.1146 5.83337 13.6309 6.44796 12.5369 7.54192C11.443 8.63588 10.8284 10.1196 10.8284 11.6667C10.8284 13.2138 11.443 14.6975 12.5369 15.7915C13.6309 16.8855 15.1146 17.5 16.6617 17.5C18.2088 17.5 19.6925 16.8855 20.7865 15.7915C21.8805 14.6975 22.495 13.2138 22.495 11.6667C22.495 10.1196 21.8805 8.63588 20.7865 7.54192C19.6925 6.44796 18.2088 5.83337 16.6617 5.83337V5.83337Z" fill="#333333"/>
</g>
</svg>
