<svg width="40" height="40" viewBox="0 0 40 40" fill="none" xmlns="http://www.w3.org/2000/svg">
<g opacity="0.3">
<path d="M33.75 12.1875C34.33 12.1868 34.886 11.9562 35.2961 11.5461C35.7062 11.136 35.9368 10.58 35.9375 10V7.5C35.9368 6.92004 35.7062 6.36403 35.2961 5.95393C34.886 5.54384 34.33 5.31316 33.75 5.3125H6.25C5.67004 5.31316 5.11403 5.54384 4.70393 5.95393C4.29384 6.36403 4.06316 6.92004 4.0625 7.5V10C4.06316 10.58 4.29384 11.136 4.70393 11.5461C5.11403 11.9562 5.67004 12.1868 6.25 12.1875H6.5625V27.8125H5C4.75136 27.8125 4.5129 27.9113 4.33709 28.0871C4.16127 28.2629 4.0625 28.5014 4.0625 28.75C4.0625 28.9986 4.16127 29.2371 4.33709 29.4129C4.5129 29.5887 4.75136 29.6875 5 29.6875H19.0625V32.9434C18.2643 33.1697 17.5748 33.6771 17.1213 34.3719C16.6679 35.0667 16.481 35.9021 16.5952 36.7239C16.7095 37.5457 17.1171 38.2984 17.7428 38.8432C18.3686 39.388 19.1703 39.6881 20 39.6881C20.8297 39.6881 21.6314 39.388 22.2572 38.8432C22.8829 38.2984 23.2905 37.5457 23.4048 36.7239C23.519 35.9021 23.3321 35.0667 22.8787 34.3719C22.4252 33.6771 21.7357 33.1697 20.9375 32.9434V29.6875H35C35.2486 29.6875 35.4871 29.5887 35.6629 29.4129C35.8387 29.2371 35.9375 28.9986 35.9375 28.75C35.9375 28.5014 35.8387 28.2629 35.6629 28.0871C35.4871 27.9113 35.2486 27.8125 35 27.8125H33.4375V12.1875H33.75ZM21.5625 36.25C21.5625 36.559 21.4709 36.8611 21.2992 37.1181C21.1275 37.375 20.8835 37.5753 20.5979 37.6936C20.3124 37.8118 19.9983 37.8428 19.6952 37.7825C19.3921 37.7222 19.1137 37.5734 18.8951 37.3549C18.6766 37.1363 18.5278 36.8579 18.4675 36.5548C18.4072 36.2517 18.4382 35.9376 18.5564 35.6521C18.6747 35.3665 18.875 35.1225 19.1319 34.9508C19.3889 34.7791 19.691 34.6875 20 34.6875C20.4142 34.688 20.8114 34.8528 21.1043 35.1457C21.3972 35.4386 21.562 35.8358 21.5625 36.25V36.25ZM5.9375 10V7.5C5.93762 7.41716 5.97059 7.33774 6.02917 7.27917C6.08774 7.22059 6.16716 7.18762 6.25 7.1875H33.75C33.8328 7.18762 33.9123 7.22059 33.9708 7.27917C34.0294 7.33774 34.0624 7.41716 34.0625 7.5V10C34.0624 10.0828 34.0294 10.1623 33.9708 10.2208C33.9123 10.2794 33.8328 10.3124 33.75 10.3125H6.25C6.16716 10.3124 6.08774 10.2794 6.02917 10.2208C5.97059 10.1623 5.93762 10.0828 5.9375 10V10ZM31.5625 27.8125H8.4375V12.1875H31.5625V27.8125Z" fill="#333333"/>
</g>
</svg>
