{
    "asset" : {
        "generator" : "Khronos glTF Blender I/O v1.4.40",
        "version" : "2.0"
    },
    "scene" : 0,
    "scenes" : [
        {
            "name" : "Scene",
            "nodes" : [
                0
            ]
        }
    ],
    "nodes" : [
        {
            "mesh" : 0,
            "name" : "node-0",
            "scale" : [
                0.17658241093158722,
                0.17658241093158722,
                0.17658241093158722
            ]
        }
    ],
    "materials" : [
        {
            "doubleSided" : true,
            "name" : "ArcticFox_Posed_initialShadingGroup",
            "pbrMetallicRoughness" : {
                "baseColorTexture" : {
                    "index" : 0,
                    "texCoord" : 0
                },
                "metallicFactor" : 0,
                "roughnessFactor" : 0.9699476361274719
            }
        }
    ],
    "meshes" : [
        {
            "name" : "buffer-0-mesh-0",
            "primitives" : [
                {
                    "attributes" : {
                        "POSITION" : 0,
                        "NORMAL" : 1,
                        "TEXCOORD_0" : 2
                    },
                    "indices" : 3,
                    "material" : 0
                }
            ]
        }
    ],
    "textures" : [
        {
            "sampler" : 0,
            "source" : 0
        }
    ],
    "images" : [
        {
            "mimeType" : "image/png",
            "name" : "ArcticFox_Diffuse",
            "uri" : "ArcticFox_Diffuse.png"
        }
    ],
    "accessors" : [
        {
            "bufferView" : 0,
            "componentType" : 5126,
            "count" : 5346,
            "max" : [
                1.4763259887695312,
                5.68453311920166,
                2.1290299892425537
            ],
            "min" : [
                -3.8183929920196533,
                -0.17301799356937408,
                -5.02092981338501
            ],
            "type" : "VEC3"
        },
        {
            "bufferView" : 1,
            "componentType" : 5126,
            "count" : 5346,
            "type" : "VEC3"
        },
        {
            "bufferView" : 2,
            "componentType" : 5126,
            "count" : 5346,
            "type" : "VEC2"
        },
        {
            "bufferView" : 3,
            "componentType" : 5123,
            "count" : 5346,
            "type" : "SCALAR"
        }
    ],
    "bufferViews" : [
        {
            "buffer" : 0,
            "byteLength" : 64152,
            "byteOffset" : 0
        },
        {
            "buffer" : 0,
            "byteLength" : 64152,
            "byteOffset" : 64152
        },
        {
            "buffer" : 0,
            "byteLength" : 42768,
            "byteOffset" : 128304
        },
        {
            "buffer" : 0,
            "byteLength" : 10692,
            "byteOffset" : 171072
        }
    ],
    "samplers" : [
        {
            "magFilter" : 9729,
            "minFilter" : 9986
        }
    ],
    "buffers" : [
        {
            "byteLength" : 181764,
            "uri" : "ArcticFox_Posed.bin"
        }
    ]
}
